<svg xmlns="http://www.w3.org/2000/svg" width="502" height="76" viewBox="0 0 502 76"><g><g><g><g><path fill="#fff" d="M248.357 74.47V63.015H223.31v-9.481h24.494V41.997H223.31v-8.77h25.047V21.77H209.72v52.7zm-62.419 0l19.91-52.7h-15.406l-13.037 38.005-12.958-38.005H149.04l19.832 52.7zm-40.77 0v-52.7h-13.59v52.7zm-41.481-29.392H92.941V33.227h10.746c3.555 0 6.558 2.291 6.558 5.926 0 3.634-3.003 5.925-6.558 5.925zm20.622 29.393l-10.746-19.358c4.9-1.738 10.509-6.637 10.509-15.802 0-9.798-6.637-17.541-18.33-17.541h-26.39v52.7h13.59V56.615h6.952l8.85 17.857zM35.5 33.62h8.612c9.64 0 14.538 6.322 14.538 14.46 0 7.822-5.372 14.538-14.617 14.538H35.5zm8.612 40.85c16.514 0 28.444-10.035 28.444-26.39 0-16.356-11.93-26.311-28.523-26.311H21.91v52.7z"/></g><g><path fill="#fff" d="M427.244 74.47V51.952l-20.93-30.183h5.45l17.77 25.916 17.771-25.916h5.45l-20.93 30.183V74.47zm-64.39-7.427l2.923-3.398c3.397 3.95 8.927 7.664 16.431 7.664 10.823 0 13.904-6.004 13.904-10.508 0-7.427-7.031-9.482-14.457-11.457-8.294-2.291-17.141-4.662-17.141-14.38 0-8.612 7.741-14.064 17.3-14.064 7.899 0 13.745 2.765 17.852 7.427l-3.001 3.319c-3.792-4.583-9.164-6.637-15.089-6.637-7.03 0-12.323 4.03-12.323 9.718 0 6.242 6.557 8.06 13.745 9.955 8.532 2.45 17.853 5.136 17.853 15.803 0 6.795-4.502 14.933-18.722 14.933-8.689 0-15.246-3.477-19.274-8.375zm-29.235-40.85l-12.564 31.21h25.206zm19.35 48.277l-5.293-12.958H319.63l-5.293 12.958h-5.056l21.567-52.7h5.609l21.567 52.7zm-82.879 0v-52.7h33.414v4.108h-28.911v19.516h28.358v4.108h-28.358v20.86h28.91v4.108z"/></g></g><g><path fill="#ff6450" d="M0 17.25C0 7.724 7.723 0 17.25 0c9.528 0 17.252 7.723 17.252 17.25v.107h-7.644v-.053h-.982v-.053a8.625 8.625 0 1 0-8.572 8.625v.982h.053V34.5h-.106C7.723 34.502 0 26.779 0 17.252z"/></g><g><path fill="#fff" d="M495.43 75.041l-5.433-7.794-1.398 1.74v6.054h-5.34V54.33h5.34v8.508l6.366-8.508h6.583l-8.042 9.688 8.477 11.023zm-29.405-4.667h3.35c3.629 0 5.738-2.637 5.738-5.709 0-3.195-1.923-5.677-5.707-5.677h-3.381zm-5.34 4.667V54.33h8.698c6.524 0 11.215 3.912 11.215 10.34s-4.691 10.371-11.184 10.371zm-16.955-2.55c0-1.582 1.335-2.915 2.919-2.915 1.583 0 2.919 1.333 2.919 2.914 0 1.581-1.336 2.914-2.92 2.914-1.583 0-2.918-1.333-2.918-2.914z"/></g></g></g></svg>